{"title":"Ron.Carter.Trio.Jazzwoche.Burghausen.2006.HDTV.XviD.AC3","uid":11665009,"size":3405023583,"categoryP":"video","categoryS":"music_videos","magnet":"?xt=urn:btih:4f3ef18980432a6168717d025a43a4915ae211cc&amp;dn=Ron.Carter.Trio.Jazzwoche.Burghausen.2006.HDTV.XviD.AC3&amp;tr=udp%3A%2F%2Ftracker.openbittorrent.com%3A80&amp;tr=udp%3A%2F%2Fopen.demonii.com%3A1337&amp;tr=udp%3A%2F%2Ftracker.coppersurfer.tk%3A6969&amp;tr=udp%3A%2F%2Fexodus.desync.com%3A6969","seeders":0,"leechers":1,"uploader":"user101966","files":2,"time":1417999617,"description":"Although &quot;pure Jazz&quot; is not really my thing, I appreciate that others may feel very differently about it and, as well, creating this AVI gave me yet another opportunity to work on my deinterlacing technique. \n\nIn fact this one was a little bit too easy and I hardly had to do anything to get it all nice and perfect just like the original (interlaced) MP2 looks when rendered in an interlaced manner. Better in fact because typically you'll still see scan lines when the video is rendered interlaced (for reasons unknown to me!).\n\nHere are the video details:\n---------------------------\n\nComplete name                            : Ron Carter Trio - Jazzwoche Burghausen 2006.avi\nFormat                                   : AVI\nFormat/Info                              : Audio Video Interleave\nFormat profile                           : OpenDML\nFile size                                : 3.17 GiB\nDuration                                 : 1h 40mn\nOverall bit rate                         : 4 535 Kbps\nWriting library                          : VirtualDub build 35491/release\n\nVideo\nID                                       : 0\nFormat                                   : MPEG-4 Visual\nFormat profile                           : Advanced Simple@L5\nFormat settings, BVOP                    : 2\nFormat settings, QPel                    : No\nFormat settings, GMC                     : No warppoints\nFormat settings, Matrix                  : Default (H.263)\nMuxing mode                              : Packed bitstream\nCodec ID                                 : XVID\nCodec ID/Hint                            : XviD\nDuration                                 : 1h 40mn\nBit rate                                 : 4 300 Kbps\nWidth                                    : 1 280 pixels\nHeight                                   : 720 pixels\nDisplay aspect ratio                     : 16:9\nFrame rate                               : 25.000 fps\nColor space                              : YUV\nChroma subsampling                       : 4:2:0\nBit depth                                : 8 bits\nScan type                                : Progressive\nCompression mode                         : Lossy\nBits/(Pixel*Frame)                       : 0.187\nStream size                              : 3.01 GiB (95%)\nWriting library                          : XviD 64\n\nAudio\nID                                       : 1\nFormat                                   : AC-3\nFormat/Info                              : Audio Coding 3\nMode extension                           : CM (complete main)\nFormat settings, Endianness              : Big\nCodec ID                                 : 2000\nDuration                                 : 1h 40mn\nBit rate mode                            : Constant\nBit rate                                 : 224 Kbps\nChannel(s)                               : 2 channels\nChannel positions                        : Front: L R\nSampling rate                            : 48.0 KHz\nBit depth                                : 16 bits\nCompression mode                         : Lossy\nStream size                              : 160 MiB (5%)\nAlignment                                : Aligned on interleaves\nInterleave, duration                     : 40 ms (1.00 video frame)\nInterleave, preload duration             : 512 ms\n-------------------------------------------------------\n\nI am particularly happy with this result because shows quite clearly that high definition is not exclusively the province of Advanced Video Codec (H264). This video is as high in definition (on my system mind you) as anything else I've ever seen and in every respect; image clarity, color depth / vibrancy, smoothness of gradients, lack of blocking and in particular the sharpness of motion at high speeds which is often problematic with AVC (but nothing compared with the main AVC problem: lack of a decent freeware encoder).\n\n- user101966","torrent":{"xt":"urn:btih:4f3ef18980432a6168717d025a43a4915ae211cc","amp;dn":"Ron.Carter.Trio.Jazzwoche.Burghausen.2006.HDTV.XviD.AC3","amp;tr":["udp%3A%2F%2Ftracker.openbittorrent.com%3A80","udp%3A%2F%2Fopen.demonii.com%3A1337","udp%3A%2F%2Ftracker.coppersurfer.tk%3A6969","udp%3A%2F%2Fexodus.desync.com%3A6969"],"infoHash":"4f3ef18980432a6168717d025a43a4915ae211cc","infoHashBuffer":{"type":"Buffer","data":[79,62,241,137,128,67,42,97,104,113,125,2,90,67,164,145,90,226,17,204]},"announce":[],"urlList":[]}}